<mxfile host="app.diagrams.net" modified="2024-06-06T12:43:26.036Z" agent="Mozilla/5.0 (Windows NT 10.0; Win64; x64) AppleWebKit/537.36 (KHTML, like Gecko) Chrome/125.0.0.0 Safari/537.36" version="24.4.13" etag="53pobo9WSa3NJW_izqYh" type="github">
  <diagram name="PÃ¡gina-1" id="8gJnrZCru4tsFE81R0Z2">
    <mxGraphModel>
      <root>
        <mxCell id="0" />
        <mxCell id="1" parent="0" />
      </root>
    </mxGraphModel>
  </diagram>
</mxfile>
